<svg xmlns="http://www.w3.org/2000/svg" viewBox="0 0 32 32">
  <rect width="32" height="32" rx="7" fill="#673de6"/>
  <g fill="#fff" transform="translate(4.5 5.5) scale(0.72)">
    <!-- island -->
    <path d="M4 28 Q16 21 28 28 Z"/>
    <!-- palm trunk -->
    <path d="M15 13 C15 18 13 22 12 25 L16 25 C17 22 17 18 17 13 Z"/>
    <!-- palm fronds -->
    <path d="M16 13 C10 9 5 10 3 14 C7 11 12 12 16 13 Z"/>
    <path d="M16 13 C12 7 8 5 5 5 C9 7 13 9 16 13 Z"/>
    <path d="M16 13 C14 7 15 3 16 1 C17 4 18 8 16 13 Z"/>
    <path d="M16 13 C20 7 24 5 27 5 C23 7 19 9 16 13 Z"/>
    <path d="M16 13 C22 9 27 10 29 14 C25 11 20 12 16 13 Z"/>
  </g>
</svg>
